<?xml version="1.0" standalone="no"?>
<!DOCTYPE svg PUBLIC "-//W3C//DTD SVG 20010904//EN"
 "http://www.w3.org/TR/2001/REC-SVG-20010904/DTD/svg10.dtd">
<svg version="1.0" xmlns="http://www.w3.org/2000/svg"
 width="252.000000pt" height="144.000000pt" viewBox="0 0 252.000000 144.000000"
 preserveAspectRatio="xMidYMid meet">
<metadata>
Created by potrace 1.10, written by Peter Selinger 2001-2011
</metadata>
<g transform="translate(0.000000,144.000000) scale(0.100000,-0.100000)"
fill="#000000" stroke="none">
<path d="M221 1329 c-13 -10 -31 -19 -41 -19 -20 0 -50 -30 -50 -51 0 -8 -8
-27 -19 -42 -12 -20 -19 -49 -20 -100 -1 -40 -5 -75 -9 -79 -4 -4 -23 -8 -42
-10 -24 -2 -36 -9 -38 -20 -3 -16 5 -18 57 -18 l61 0 0 105 0 105 40 0 c22 0
40 5 40 10 0 6 -9 10 -20 10 -16 0 -20 7 -20 31 0 27 3 30 28 27 19 -2 27 -8
26 -20 -1 -10 4 -18 12 -18 10 0 14 13 14 40 l0 40 1020 0 1020 0 0 -40 c0
-22 5 -40 10 -40 6 0 10 9 10 20 0 16 7 20 30 20 27 0 30 -3 30 -30 0 -23 -4
-30 -20 -30 -11 0 -20 -4 -20 -10 0 -5 18 -10 40 -10 l40 0 0 -105 0 -105 60
0 c53 0 60 2 60 19 0 16 -8 20 -42 23 l-43 3 -3 80 c-2 57 -8 85 -19 98 -9 10
-18 28 -20 39 -5 31 -32 58 -60 58 -12 0 -23 5 -23 11 0 5 -5 7 -10 4 -6 -3
-13 1 -16 9 -6 15 -106 16 -1023 16 -992 -1 -1017 -1 -1040 -21z"/>
<path d="M260 1260 c0 -33 -3 -40 -20 -40 -13 0 -20 -7 -20 -20 0 -17 -7 -20
-39 -20 l-40 0 -3 -95 -3 -95 1123 0 1122 0 0 95 0 95 -40 0 c-33 0 -40 3 -40
20 0 13 -7 20 -20 20 -17 0 -20 7 -20 40 l0 40 -1000 0 -1000 0 0 -40z m978
-21 c-12 -16 -25 -29 -29 -29 -4 0 -14 -16 -23 -35 -18 -37 -29 -40 -59 -14
-38 34 -66 30 -113 -17 -30 -30 -46 -39 -51 -31 -5 7 -16 18 -25 25 -28 22
-74 -11 -90 -65 l-12 -43 -331 2 -330 3 -3 58 c-3 48 0 57 14 57 27 0 85 50
100 86 l14 34 453 2 c248 2 464 1 479 -1 l27 -3 -21 -29z m988 7 c3 -14 12
-27 20 -30 8 -3 14 -11 14 -18 0 -7 20 -26 45 -41 45 -27 46 -28 44 -77 l-3
-49 -337 -3 c-330 -3 -338 -3 -345 17 -8 25 -11 36 -13 53 0 7 -15 21 -33 32
-24 14 -36 16 -51 9 -10 -6 -16 -13 -13 -16 3 -4 1 -12 -5 -19 -9 -11 -20 -4
-57 31 -25 24 -49 42 -54 39 -4 -3 -8 1 -8 8 0 9 -3 9 -10 -2 -5 -8 -10 -11
-10 -7 0 5 -7 1 -16 -8 -17 -17 -41 -15 -36 4 1 6 -2 11 -8 11 -5 0 -9 6 -7
13 1 6 -4 11 -11 9 -8 -1 -11 2 -6 9 3 6 -4 21 -18 33 -13 11 -18 17 -11 12 8
-5 13 -4 13 2 0 17 19 17 477 14 l433 -2 6 -24z m-916 -62 c11 -26 20 -52 20
-58 0 -6 -18 -35 -39 -64 l-39 -53 -35 58 -36 58 47 51 c26 29 50 52 54 53 4
1 16 -20 28 -45z m-201 -60 l21 -46 -31 -39 c-17 -22 -34 -39 -37 -39 -4 1
-19 17 -33 38 l-26 37 41 46 c23 26 42 47 43 48 1 1 11 -20 22 -45z m366 -83
l-26 -42 -30 37 c-18 23 -27 44 -23 53 3 9 11 29 16 45 l11 28 39 -40 40 -39
-27 -42z m-525 28 c0 -4 -10 -18 -21 -33 l-21 -27 -19 31 -19 31 27 24 28 23
12 -21 c7 -12 12 -25 13 -28z m680 -1 c0 -5 -7 -20 -17 -34 l-16 -25 -23 28
c-20 26 -21 30 -7 56 l15 29 24 -23 c13 -12 24 -26 24 -31z"/>
<path d="M1251 1149 c-21 -26 -22 -34 -12 -57 l12 -26 23 29 c20 24 22 34 14
57 -6 15 -11 28 -11 27 -1 0 -13 -14 -26 -30z"/>
<path d="M1060 1095 c-7 -8 -9 -22 -6 -31 5 -13 9 -14 21 -4 17 14 20 36 6 44
-5 3 -14 -1 -21 -9z"/>
<path d="M851 858 c-17 -46 -21 -78 -11 -78 5 0 10 5 10 10 0 6 7 10 15 10 8
0 15 -4 15 -10 0 -5 5 -10 10 -10 6 0 10 9 10 20 0 11 -4 20 -10 20 -5 0 -10
14 -10 30 0 35 -17 40 -29 8z"/>
<path d="M907 873 c-2 -5 -2 -25 1 -46 5 -40 28 -60 43 -36 12 20 11 89 -2 89
-6 0 -8 -8 -4 -19 3 -10 2 -29 -3 -41 l-9 -24 -6 26 c-4 15 -4 34 -1 42 6 16
-11 23 -19 9z"/>
<path d="M980 830 c0 -27 4 -50 9 -50 12 0 43 79 36 91 -4 5 -15 9 -26 9 -16
0 -19 -7 -19 -50z"/>
<path d="M1040 830 c0 -27 5 -50 10 -50 6 0 10 5 10 11 0 8 5 7 15 -1 9 -7 18
-10 22 -6 4 3 -2 12 -11 19 -15 11 -16 17 -7 35 17 32 13 42 -14 42 -23 0 -25
-3 -25 -50z"/>
<path d="M1123 833 c-10 -43 -7 -76 4 -45 5 14 33 16 33 2 0 -5 5 -10 10 -10
6 0 10 9 10 20 0 11 -4 20 -10 20 -5 0 -10 14 -10 30 0 48 -25 36 -37 -17z"/>
<path d="M1215 850 c-13 -60 19 -94 42 -45 9 20 8 25 -2 25 -8 0 -16 -8 -18
-17 -3 -10 -5 -2 -6 17 0 25 2 31 9 20 11 -18 23 -8 14 14 -10 26 -32 19 -39
-14z"/>
<path d="M1280 830 c0 -27 5 -50 10 -50 6 0 10 5 10 11 0 8 5 7 15 -1 9 -7 18
-10 22 -6 4 3 -2 12 -11 19 -15 11 -16 17 -7 35 17 32 13 42 -14 42 -23 0 -25
-3 -25 -50z"/>
<path d="M1362 833 c-10 -43 -6 -76 5 -45 5 14 33 16 33 2 0 -5 12 -10 26 -10
14 0 23 4 20 9 -7 10 25 71 37 71 4 0 5 -20 1 -45 -4 -29 -2 -45 5 -45 6 0 11
12 11 26 0 14 4 23 10 19 5 -3 7 -12 3 -20 -3 -8 0 -15 6 -15 7 0 11 20 11 50
0 30 -4 50 -11 50 -7 0 -9 -10 -7 -25 3 -14 1 -25 -3 -25 -5 0 -9 10 -9 23 0
20 -5 23 -37 22 l-38 0 3 -42 c3 -29 0 -43 -8 -43 -7 0 -10 6 -7 14 3 8 2 16
-3 18 -6 2 -11 15 -12 31 -4 43 -25 31 -36 -20z"/>
<path d="M1550 830 c0 -27 4 -50 10 -50 5 0 8 22 7 50 -3 65 -17 65 -17 0z"/>
<path d="M1587 873 c-12 -11 -8 -81 5 -89 11 -7 42 25 32 35 -3 3 -9 -1 -14
-9 -14 -22 -25 14 -11 37 6 10 11 12 11 6 0 -7 4 -13 9 -13 5 0 7 9 4 20 -5
20 -23 26 -36 13z"/>
<path d="M1647 873 c-12 -11 -8 -40 8 -53 8 -7 15 -17 15 -22 0 -6 -7 -4 -17
3 -14 12 -16 12 -11 -1 7 -22 37 -24 45 -4 4 10 0 22 -10 29 -10 7 -17 18 -17
26 0 11 2 11 10 -1 11 -18 23 -8 14 14 -6 16 -25 21 -37 9z"/>
<path d="M538 725 c-3 -3 0 -26 7 -52 14 -55 35 -69 35 -23 0 18 4 29 10 25 6
-3 10 -15 10 -26 0 -33 27 -21 32 14 3 17 9 40 13 51 6 14 5 18 -6 14 -8 -2
-15 -17 -17 -31 -4 -33 -22 -26 -22 9 0 34 -15 30 -28 -8 -10 -32 -10 -32 -11
-6 -1 26 -13 43 -23 33z"/>
<path d="M1840 675 c0 -30 3 -55 8 -55 4 0 7 25 7 55 0 30 -3 55 -7 55 -5 0
-8 -25 -8 -55z"/>
<path d="M1910 710 c0 -11 -6 -20 -12 -20 -9 0 -9 -3 -3 -8 6 -4 11 -16 10
-26 0 -11 5 -21 11 -23 7 -2 10 6 7 22 -3 15 -1 25 6 25 6 0 11 5 11 11 0 5
-4 7 -10 4 -14 -9 -13 8 2 23 9 9 8 12 -5 12 -10 0 -17 -8 -17 -20z"/>
<path d="M920 675 c0 -38 3 -45 20 -45 16 0 20 7 20 30 0 17 -4 30 -10 30 -5
0 -10 7 -10 15 0 8 -4 15 -10 15 -5 0 -10 -20 -10 -45z"/>
<path d="M1025 680 c1 -56 12 -60 17 -6 2 27 -1 46 -7 46 -5 0 -10 -18 -10
-40z"/>
<path d="M1440 675 c0 -25 5 -45 10 -45 6 0 10 20 10 45 0 25 -4 45 -10 45 -5
0 -10 -20 -10 -45z"/>
<path d="M1500 706 c0 -8 -7 -17 -16 -20 -22 -9 -14 -50 11 -54 17 -2 20 3 20
43 0 25 -3 45 -7 45 -5 0 -8 -6 -8 -14z"/>
<path d="M1720 705 c0 -8 -5 -15 -12 -15 -9 0 -9 -3 0 -12 7 -7 12 -22 12 -35
0 -39 18 -25 22 16 2 22 2 45 0 50 -5 16 -22 13 -22 -4z"/>
<path d="M1388 703 c-13 -3 -18 -14 -18 -39 0 -19 5 -34 11 -34 6 0 8 8 4 19
-4 13 1 24 15 34 23 16 16 26 -12 20z"/>
<path d="M644 676 c-3 -14 -3 -30 1 -35 8 -15 32 -14 41 1 5 7 2 9 -9 5 -18
-7 -32 19 -15 29 7 4 8 3 4 -4 -4 -7 -2 -12 3 -12 6 0 11 9 11 20 0 28 -28 25
-36 -4z"/>
<path d="M717 679 c-3 -11 -3 -27 0 -35 7 -19 33 -18 33 2 0 8 -4 12 -10 9 -5
-3 -10 1 -10 10 0 9 5 13 10 10 6 -3 10 1 10 9 0 24 -27 19 -33 -5z"/>
<path d="M770 689 c0 -5 5 -7 10 -4 6 3 10 1 10 -4 0 -6 -4 -11 -10 -11 -5 0
-10 -9 -10 -19 0 -14 7 -19 25 -17 17 1 23 6 20 14 -3 8 -5 22 -5 33 0 12 -7
19 -20 19 -11 0 -20 -5 -20 -11z"/>
<path d="M830 660 c0 -22 5 -40 10 -40 6 0 10 9 10 19 0 11 4 22 9 25 5 4 7
-3 4 -14 -3 -11 0 -20 6 -20 6 0 11 16 11 35 0 38 -12 45 -30 18 -11 -17 -11
-17 -6 0 3 9 1 17 -4 17 -6 0 -10 -18 -10 -40z"/>
<path d="M972 665 c1 -21 6 -35 14 -35 8 0 11 6 7 15 -3 9 3 25 12 35 18 19
17 20 -8 20 -24 0 -26 -4 -25 -35z"/>
<path d="M1061 663 c-1 -24 4 -43 9 -43 12 0 12 37 0 65 -7 15 -9 10 -9 -22z"/>
<path d="M1087 693 c-8 -12 4 -63 14 -63 12 0 12 57 0 65 -5 3 -12 2 -14 -2z"/>
<path d="M1120 678 c0 -39 12 -68 26 -68 10 0 14 13 14 45 0 38 -3 45 -20 45
-14 0 -20 -7 -20 -22z"/>
<path d="M1204 655 c12 -52 21 -57 29 -17 3 15 9 35 12 45 4 10 3 17 -4 17 -6
0 -11 -8 -11 -17 -1 -17 -1 -17 -14 0 -21 27 -23 21 -12 -28z"/>
<path d="M1262 668 c2 -21 8 -33 18 -33 10 0 16 12 18 33 3 27 0 32 -18 32
-18 0 -21 -5 -18 -32z"/>
<path d="M1310 681 c0 -30 11 -51 26 -51 8 0 14 9 14 19 0 11 3 26 6 35 3 9 1
16 -4 16 -6 0 -13 -12 -15 -27 l-4 -28 -2 28 c-1 30 -21 38 -21 8z"/>
<path d="M1524 676 c-3 -14 -3 -30 1 -35 8 -14 35 -14 35 0 0 5 -4 8 -9 5 -5
-3 -11 1 -15 9 -3 8 0 17 6 21 7 4 8 3 4 -4 -4 -7 -2 -12 3 -12 6 0 11 9 11
20 0 28 -28 25 -36 -4z"/>
<path d="M1580 689 c0 -6 8 -8 18 -5 16 6 16 5 0 -8 -34 -25 -22 -42 30 -41
31 0 47 4 46 13 -1 6 -2 21 -2 32 -1 11 -9 20 -17 20 -8 0 -15 -9 -15 -20 0
-11 5 -20 10 -20 6 0 10 -4 10 -9 0 -5 -9 -7 -20 -4 -13 3 -20 14 -20 29 0 17
-6 24 -20 24 -11 0 -20 -5 -20 -11z"/>
<path d="M1760 664 c0 -28 3 -35 18 -32 11 2 18 14 20 36 3 27 0 32 -17 32
-17 0 -21 -6 -21 -36z"/>
<path d="M1944 676 c-3 -14 -3 -30 1 -35 8 -15 32 -14 41 1 5 8 2 9 -11 4 -18
-7 -18 -6 -1 13 19 21 14 41 -9 41 -8 0 -17 -11 -21 -24z"/>
<path d="M0 431 c0 -16 8 -20 43 -23 l42 -3 3 -79 c2 -60 8 -85 22 -104 11
-14 20 -32 20 -42 0 -20 31 -50 52 -50 8 0 27 -9 41 -20 25 -20 40 -20 1035
-20 870 0 1013 2 1025 15 8 8 17 11 21 8 3 -4 6 -2 6 3 0 5 10 10 21 11 28 2
56 29 64 61 4 15 13 34 20 42 9 10 15 45 17 95 l3 80 43 3 c34 3 42 7 42 23 0
17 -7 19 -60 19 l-60 0 0 -105 0 -105 -40 0 c-27 0 -40 -4 -40 -14 0 -8 8 -13
18 -12 12 1 18 -7 20 -26 3 -25 0 -28 -27 -28 -24 0 -31 4 -31 20 0 11 -4 20
-10 20 -5 0 -10 -18 -10 -40 l0 -40 -1020 0 -1020 0 0 40 c0 30 -4 40 -16 40
-11 0 -14 -6 -9 -20 5 -17 2 -20 -24 -20 -28 0 -31 3 -31 30 0 23 4 30 16 28
10 -2 19 3 21 10 3 8 -8 12 -36 12 l-41 0 0 105 0 105 -60 0 c-53 0 -60 -2
-60 -19z"/>
<path d="M138 355 l3 -95 36 0 c26 0 36 -5 40 -19 3 -11 13 -21 24 -24 14 -4
19 -14 19 -41 l0 -36 1000 0 1000 0 0 40 c0 33 3 40 20 40 13 0 20 7 20 20 0
17 7 20 40 20 l40 0 0 95 0 95 -391 0 -391 0 17 -26 c17 -26 16 -27 -7 -51
l-25 -24 -17 26 c-17 26 -17 28 5 51 l22 24 -67 0 c-70 0 -72 -2 -37 -43 14
-17 12 -21 -24 -52 l-40 -33 -18 35 -19 35 28 29 28 29 -92 0 c-51 0 -92 -4
-92 -8 0 -4 16 -23 35 -42 41 -40 42 -45 13 -105 l-22 -45 -48 47 c-26 26 -48
51 -48 56 0 5 14 28 30 53 l31 44 -87 0 -88 0 28 -29 c27 -28 27 -28 10 -65
-10 -20 -22 -36 -28 -36 -6 0 -28 16 -49 36 l-38 37 27 28 28 29 -460 0 -459
0 3 -95z m796 66 c15 -17 16 -23 4 -44 l-13 -25 -29 24 c-27 24 -28 26 -11 44
22 25 28 25 49 1z m-65 -69 c4 -7 24 -15 45 -18 22 -2 35 0 32 5 -4 5 4 13 16
17 14 4 24 2 26 -5 6 -17 78 -61 101 -61 11 0 31 14 45 31 23 27 30 29 28 8
-2 -14 98 -99 117 -99 10 0 31 15 45 33 47 60 60 71 64 59 7 -22 40 -34 63
-22 27 15 65 53 61 63 -4 14 15 7 33 -13 10 -11 27 -20 37 -20 28 0 60 19 52
32 -4 7 -3 8 4 4 7 -4 17 3 24 18 l11 26 337 0 337 0 2 -55 c2 -50 0 -56 -23
-64 -30 -12 -96 -77 -96 -96 0 -7 -4 -16 -9 -19 -5 -3 -438 -6 -962 -6 l-954
-1 -18 33 c-19 36 -74 88 -92 88 -23 0 -31 21 -25 67 l5 48 320 5 320 5 23
-25 c13 -14 27 -31 31 -38z"/>
<path d="M1054 406 c-4 -11 -2 -21 7 -27 31 -19 38 -5 15 27 -14 18 -15 18
-22 0z"/>
<path d="M1241 378 c-11 -18 -10 -24 11 -44 22 -22 24 -23 34 -6 9 14 7 23
-10 45 l-21 27 -14 -22z"/>
</g>
</svg>
